<?xml version="1.0" standalone="no"?><!DOCTYPE svg PUBLIC "-//W3C//DTD SVG 1.1//EN" "http://www.w3.org/Graphics/SVG/1.1/DTD/svg11.dtd"><svg t="1582795087054" class="icon" viewBox="0 0 1024 1024" version="1.1" xmlns="http://www.w3.org/2000/svg" p-id="18132" xmlns:xlink="http://www.w3.org/1999/xlink" width="16" height="16"><defs><style type="text/css"></style></defs><path d="M831.551408 64.62281 192.441429 64.62281c-70.301136 0-127.816061 57.516971-127.816061 127.819131l0 639.102816c0 70.308299 57.514925 127.833457 127.816061 127.833457l639.109979 0c70.293973 0 127.821177-57.525158 127.821177-127.833457L959.372585 192.44194C959.372585 122.139781 901.846404 64.62281 831.551408 64.62281zM646.217353 486.439858c-108.652606 159.77903-204.521047 345.115132-204.521047 345.115132L192.444499 550.35147l63.915705-70.303182 153.384389 146.993842c0 0 76.695776-127.822201 178.950671-236.468666 102.261035-108.652606 223.688595-198.12743 223.688595-198.12743l19.170618 63.915705C831.553455 256.360715 729.29856 365.008204 646.217353 486.439858z" p-id="18133" fill="#1890ff"></path></svg>