<?xml version="1.0" standalone="no"?><!DOCTYPE svg PUBLIC "-//W3C//DTD SVG 1.1//EN" "http://www.w3.org/Graphics/SVG/1.1/DTD/svg11.dtd"><svg t="1582794762646" class="icon" viewBox="0 0 1024 1024" version="1.1" xmlns="http://www.w3.org/2000/svg" p-id="16815" xmlns:xlink="http://www.w3.org/1999/xlink" width="200" height="200"><defs><style type="text/css"></style></defs><path d="M831.550385 128.531352c38.349423 0 63.910589 25.567305 63.910589 63.910589l0 639.102816c0 38.355563-25.561166 63.916728-63.910589 63.916728L192.441429 895.461485c-38.341237 0-63.908542-25.561166-63.908542-63.916728L128.532887 192.44194c0-38.343283 25.567305-63.910589 63.908542-63.910589L831.550385 128.531352M831.550385 64.62281 192.441429 64.62281c-70.301136 0-127.816061 57.516971-127.816061 127.819131l0 639.102816c0 70.308299 57.514925 127.833457 127.816061 127.833457l639.108956 0c70.294996 0 127.822201-57.525158 127.822201-127.833457L959.372585 192.44194C959.372585 122.139781 901.846404 64.62281 831.550385 64.62281L831.550385 64.62281 831.550385 64.62281zM831.550385 64.62281" p-id="16816" fill="#bfbfbf"></path></svg>