<?xml version="1.0" standalone="no"?><!DOCTYPE svg PUBLIC "-//W3C//DTD SVG 1.1//EN" "http://www.w3.org/Graphics/SVG/1.1/DTD/svg11.dtd"><svg t="1582881377853" class="icon" viewBox="0 0 1024 1024" version="1.1" xmlns="http://www.w3.org/2000/svg" p-id="1678" width="32" height="32" xmlns:xlink="http://www.w3.org/1999/xlink"><defs><style type="text/css"></style></defs><path d="M911.9 839.2l-161-160.9C871 517.7 838.2 290.1 677.5 170s-388.2-87.3-508.3 73.4C122.3 306.1 97 382.4 97 460.8 97 661.4 259.6 824 460.1 824c78.4 0 154.7-25.4 217.5-72.3l160.8 160.8c20.2 20.3 53.1 20.3 73.4 0.1 20.3-20.3 20.3-53.1 0.1-73.4zM408.2 408.9h-51.9c-28.7 0-51.9 23.2-51.9 51.9s23.2 51.9 51.9 51.9h51.9v51.9c0 28.7 23.2 51.9 51.9 51.9s51.9-23.2 51.9-51.9v-51.9h51.9c28.7 0 51.9-23.2 51.9-51.9s-23.2-51.9-51.9-51.9H512V357c0-28.7-23.2-51.9-51.9-51.9s-51.9 23.2-51.9 51.9v51.9z m51.9 311.3c-143.3 0-259.4-116.1-259.4-259.4s116.1-259.4 259.4-259.4 259.4 116.1 259.4 259.4-116.1 259.4-259.4 259.4z" p-id="1679" fill="#1890ff"></path></svg>